<?xml version="1.0" encoding="utf-8"?>
<!-- Generator: Adobe Illustrator 21.0.2, SVG Export Plug-In . SVG Version: 6.00 Build 0)  -->
<svg version="1.1" id="Layer_1" xmlns="http://www.w3.org/2000/svg" xmlns:xlink="http://www.w3.org/1999/xlink" x="0px" y="0px"
	 viewBox="0 0 85 85" style="enable-background:new 0 0 85 85;" xml:space="preserve">
<style type="text/css">
	.st0{fill:#7a7fdc;}
	.st1{fill:#FFFFFF;}
	.st2{enable-background:new    ;}
</style>
<rect x="-30.1" y="-29.9" class="st0" width="147" height="145"/>
<path class="st1" d="M56.8,58L70,46.9l-2.8-1.4c-1.1-0.5-0.9-1.1-0.5-2.8l2.1-7.6l-7.6,1.6c-0.9,0-1.4-0.5-1.4-0.9l-1.3-3.4
	l-6.1,6.8c-0.9,1.1-2.6,1.1-2.1-1.4L53,23.5l-3.4,1.8c-0.9,0.5-2.3-0.5-2.3-0.5l-4.9-9.1L37.7,25c-0.5,1.1-1.4,0.9-2.6,0.5l-3.5-1.8
	L34.4,38c0.5,2.6-1.4,2.6-2.1,1.4l-6.3-7l-0.9,3.4c0,0.5-0.6,0.9-1.4,0.9l-7.6-1.5l2.1,7.6c0.5,1.6,0.6,2.3-0.5,2.8L15,46.9L28.2,58
	c0.5,0.5,0.9,1.1,0.6,1.8l-1.1,3.9c4.3-0.5,8.5-0.9,13.2-1.4c0.2,0,0.9,0.3,0.9,0.6l-0.3,8.9h1.9L43,63c0-0.5,0.5-0.6,0.9-0.6
	c4.6,0.5,8.5,0.9,13.2,1.4L56,59.9C55.8,59.2,56,58.4,56.8,58L56.8,58z"/>
<g class="st2">
	<path class="st0" d="M34.2,46.6h5.9v-5.9h5v5.9H51v5h-6v5.9h-5v-5.9h-5.9v-5H34.2z"/>
</g>
</svg>
